<?xml version="1.0" encoding="utf-8"?>
<!-- Generator: Adobe Illustrator 22.0.0, SVG Export Plug-In . SVG Version: 6.00 Build 0)  -->
<svg version="1.0" id="图层_1" xmlns="http://www.w3.org/2000/svg" xmlns:xlink="http://www.w3.org/1999/xlink" x="0px" y="0px"
	 viewBox="0 0 1152 1152" style="enable-background:new 0 0 1152 1152;" xml:space="preserve">
<style type="text/css">
	.st0{fill:none;stroke:#000000;stroke-linejoin:round;}
	.st1{fill:none;stroke:#000000;stroke-miterlimit:10;}
</style>
<path id="path19702"   class="st0" d="M372.7,670.5l49.1,49.1l13.9-14.4l-43-43L372.7,670.5z"/>
<path id="path19704"   class="st0" d="M482.1,780.4L433,731.3l14.4-13.9l43,43L482.1,780.4z"/>
<path id="path19710"   class="st0" d="M407.5,656.3l38.9,39l14.4-14.4l-32.6-32.6L407.5,656.3z"/>
<path id="path19712"   class="st0" d="M496.5,745.2l-38.8-38.7l14.4-14.4l32.6,32.6L496.5,745.2z"/>
<path id="path19714"   class="st0" d="M443.9,641.8l67.1,67.1l8.2-20.8l-54.8-54.8L443.9,641.8z"/>
<path id="path19716"   class="st0" d="M783.6,670.5L674.4,779.6l-8-20.2l97.3-97.3L783.6,670.5L783.6,670.5z"/>
<path id="path19720"   class="st0" d="M749.4,656.4l-38.9,39L696.1,681l32.6-32.6L749.4,656.4z"/>
<path id="path19722"   class="st0" d="M660.4,745.4l38.8-38.7l-14.4-14.4L652.1,725L660.4,745.4z"/>
<path id="path19735"   class="st0" d="M713.2,643l-27.4,27.4l-14.9-15l21.1-21.1L713.2,643L713.2,643z"/>
<path id="path19737"   class="st0" d="M646.7,709.1l27.4-27.4l-15-14.9L638,687.8L646.7,709.1L646.7,709.1z"/>
<path id="path19757"   class="st0" d="M717.8,623.8v-38.7l-21.2,0V615L717.8,623.8L717.8,623.8z"/>
<path id="path19759"   class="st0" d="M717.6,530.1v38.7l-21.2,0V539L717.6,530.1L717.6,530.1z"/>
<path id="path19763"   class="st0" d="M787.6,654.5v-69.4l-20,0.3v60.8L787.6,654.5z"/>
<path id="path19765"   class="st0" d="M788,499.4v69.4l-20-0.3v-60.8L788,499.4z"/>
<path id="path19767"   class="st0" d="M753.3,639L753,514.9l-19.9,8.4v107.4L753.3,639L753.3,639z"/>
<path id="path19680-1"   class="st0" d="M671.9,371.1l109.2,109.2l-20.2,8L663.6,391L671.9,371.1z"/>
<path id="path19694-1"   class="st0" d="M644,441.8l27.4,27.4l-15,14.9l-21.1-21.1L644,441.8L644,441.8z"
	/>
<path id="path19696-5"   class="st0" d="M710.1,508.3l-27.4-27.4l-14.9,15l21.1,21.1L710.1,508.3L710.1,508.3z"/>
<path id="path19698-2"   class="st0" d="M658.4,406l87.6,87.9l-20,8.2L650,426.2L658.4,406L658.4,406z"/>
<path id="path19781"   class="st0" d="M500.4,363h154.4l-8.6,20H508.6L500.4,363L500.4,363z"/>
<path id="path19783"   class="st0" d="M530.1,433l94.8,0l-8.9,20.5h-77.5L530.1,433L530.1,433z"/>
<path id="path19785"   class="st0" d="M515.5,397.5l124.1,0.2l-8.4,19.9l-107.4,0L515.5,397.5L515.5,397.5z"/>
<path id="rect1929"   class="st0" d="M364.8,654.2V499.8l20,8.6V646C384.7,646,364.8,654.2,364.8,654.2z"/>
<path id="path7251"   class="st0" d="M398.9,639.9l-0.1-55l20.3,0v46.1L398.9,639.9z"/>
<path id="path10798"   class="st0" d="M398.9,514.1l-0.1,54.8l20.3,0v-46.1L398.9,514.1z"/>
<path id="path12570"   class="st0" d="M434.8,624.4v-94.8l20.5,8.9V616L434.8,624.4L434.8,624.4z"/>
<path id="path12571" class="st1" d="M579,496.3c-13,0-26.4,3.4-38.8,10.2c-21.4,11.7-35.9,31-39.9,53l0,0.2c-6.6,29.3,5.1,61.3,29.2,79.6l0.1,0.1c17.2,14.2,40.6,19.5,64.4,14.7c23.8-4.8,43.4-18.9,53.7-38.7l0.1-0.2c11.5-19.1,13.4-43.1,5.1-66c-8.3-22.9-25.1-40.1-46.3-47.4l-0.2-0.1C597.7,498.1,588.4,496.3,579,496.3z"/>
<path id="path25184" class="st1" d="M657.9,575.3c0-44.2-35.9-80-80-80c22.1,0,40,17.9,40,40c0,22-17.8,39.8-39.7,40c-0.1,0-0.2,0-0.3,0c-22,0.2-39.7,18-39.7,40c0,22,17.8,39.8,39.7,40c0,0,0.1,0,0.1,0c0.1,0,0.1,0,0.2,0C622.2,655.2,657.9,619.4,657.9,575.3L657.9,575.3z"/>
<path id="path25318"  class="st1" d="M577.4,545.5c5.5,0,10-4.5,10-10s-4.5-10-10-10s-10,4.5-10,10S571.9,545.5,577.4,545.5z"/>
<path id="path25320"  class="st1" d="M577.4,625.5c5.5,0,10-4.5,10-10s-4.5-10-10-10s-10,4.5-10,10S571.9,625.5,577.4,625.5z"/>
<path id="path19844-4"   class="st0" d="M640.6,753l-55,0.1l0-20.3h46.1L640.6,753z"/>
<path id="path19846-0"   class="st0" d="M514.7,753l54.8,0.1l0-20.3h-46.1L514.7,753z"/>
<path id="path19852-8"   class="st0" d="M624.5,717.9h-38.7l0-21.2h29.8L624.5,717.9L624.5,717.9z"/>
<path id="path19854-8"   class="st0" d="M530.8,717.7h38.7l0-21.2h-29.8L530.8,717.7L530.8,717.7z"/>
<path id="path19858-4"   class="st0" d="M655.2,787h-69.4l0.3-20h60.8L655.2,787z"/>
<path id="path19860-5"   class="st0" d="M500.1,787.4h69.4l-0.3-20h-60.8L500.1,787.4z"/>
<path id="path19808"   class="st0" d="M509.6,439.4l-67.1,67.1l20.8,8.2l54.8-54.8L509.6,439.4z"/>
<path id="path19812"   class="st0" d="M481.4,368.6l-49.1,49.1l14.4,13.9l43-43L481.4,368.6z"/>
<path id="path19814"   class="st0" d="M371.5,478l49.1-49.1l13.9,14.4l-43,43L371.5,478z"/>
<path id="path19816"   class="st0" d="M494.8,403.9l-87.6,87.9l20,8.2l75.9-75.9L494.8,403.9z"/>
</svg>
